<svg height="511pt" viewBox="-53 1 511 511.999" width="511pt" xmlns="http://www.w3.org/2000/svg"><path d="m61.5 100c0 13.75 8.675781 25.472656 20.847656 30h280.152344c17.671875 0 32-14.328125 32-32 0-13.75-8.675781-25.472656-20.851562-30h-280.148438c-17.671875 0-32 14.328125-32 32zm0 0" fill="#d8fb93"/><path d="m223.5 10h-7c-14.914062 0-27 12.089844-27 27v29h61v-29c0-14.910156-12.089844-27-27-27zm0 0" fill="#a0e557"/><path d="m133.34375 130.722656 90.863281 90.863282 39.128907-39.09375-52.214844-52.214844zm0 0" fill="#feda9b"/><path d="m346.777344 130.277344h-101.65625l50.828125 50.828125zm0 0" fill="#ade5ff"/><path d="m320.742188 158.058594-41.792969 41.796875-15.988281-15.988281-57.765626 57.707031-83.515624-83.515625h-49.40625v330.664062c0 4.625.773437 9.070313 2.179687 13.222656.695313.035157 1.394531.054688 2.101563.054688h251.890624c22.800782 0 41.28125-18.480469 41.28125-41.277344v-302.664062zm0 0" fill="#a0e557"/><path d="m404.5 98c0-23.160156-18.839844-42-42-42h-102v-19c0-20.402344-16.597656-37-37-37h-42c-20.402344 0-37 16.597656-37 37v19h-102c-23.160156 0-42 18.839844-42 42 0 17.023438 10.183594 31.699219 24.773438 38.289062v324.429688c0 28.277344 23.003906 51.28125 51.277343 51.28125h251.894531c28.273438 0 51.277344-23.003906 51.277344-51.28125v-186.386719c0-5.523437-4.476562-10-10-10-5.519531 0-10 4.476563-10 10v186.386719c0 17.25-14.03125 31.28125-31.277344 31.28125h-251.890624c-17.25 0-31.277344-14.03125-31.277344-31.28125v-320.660156h45.261718l107.585938 107.589844c1.953125 1.953124 4.511719 2.925781 7.070312 2.925781 2.558594 0 5.117188-.972657 7.066407-2.921875l51.070312-51.019532 8.542969 8.542969c1.953125 1.953125 4.511719 2.929688 7.074219 2.929688 2.558593 0 5.117187-.976563 7.070312-2.929688l65.113281-65.113281h8.589844v58.042969c0 5.523437 4.480469 10 10 10 5.523438 0 10-4.476563 10-10v-61.816407c14.59375-6.589843 24.777344-21.265624 24.777344-38.289062zm-240-61c0-9.375 7.625-17 17-17h42c9.375 0 17 7.625 17 17v19h-76zm40.699219 189.4375-86.378907-86.375h87.941407l42.429687 42.425781zm73.75-42.476562-43.902344-43.902344h87.800781zm83.550781-63.960938h-320c-12.132812 0-22-9.867188-22-22s9.867188-22 22-22h320c12.128906 0 22 9.867188 22 22s-9.871094 22-22 22zm0 0"/><path d="m362.648438 225.929688c-1.859376 1.859374-2.929688 4.441406-2.929688 7.070312s1.070312 5.210938 2.929688 7.070312c1.859374 1.859376 4.441406 2.929688 7.078124 2.929688 2.632813 0 5.210938-1.070312 7.070313-2.929688 1.863281-1.859374 2.921875-4.441406 2.921875-7.070312s-1.058594-5.210938-2.921875-7.070312c-1.859375-1.859376-4.4375-2.929688-7.070313-2.929688-2.636718 0-5.21875 1.070312-7.078124 2.929688zm0 0"/><path d="m284.960938 233v204.085938c0 5.523437 4.476562 10 10 10 5.519531 0 10-4.476563 10-10v-204.085938c0-5.523438-4.480469-10-10-10-5.523438 0-10 4.476562-10 10zm0 0"/><path d="m192.5 338.332031v98.753907c0 5.523437 4.476562 10 10 10s10-4.476563 10-10v-98.753907c0-5.523437-4.476562-10-10-10s-10 4.480469-10 10zm0 0"/><path d="m100.039062 208v229.085938c0 5.523437 4.476563 10 10 10 5.523438 0 10-4.476563 10-10v-229.085938c0-5.523438-4.476562-10-10-10-5.523437 0-10 4.476562-10 10zm0 0"/><path d="m209.570312 285.261719c-1.859374-1.863281-4.441406-2.933594-7.070312-2.933594s-5.210938 1.070313-7.070312 2.933594c-1.859376 1.859375-2.929688 4.4375-2.929688 7.066406 0 2.640625 1.070312 5.210937 2.929688 7.082031 1.859374 1.859375 4.441406 2.917969 7.070312 2.917969s5.210938-1.058594 7.070312-2.917969c1.859376-1.871094 2.929688-4.441406 2.929688-7.082031 0-2.628906-1.070312-5.207031-2.929688-7.066406zm0 0"/></svg>